<?xml version="1.0" encoding="UTF-8"?>
<svg height="600" width="800" xmlns="http://www.w3.org/2000/svg" xmlns:xlink="http://www.w3.org/1999/xlink">
    <g id="Notes" font-family="LucidaGrande, 'Lucida Grande', sans-serif" font-size="13">
        <rect fill="white" height="600.0" width="800.0" x="0.0" y="0.0" />
        <g font-size="13">
            <text x="18.0" y="176.0">Small</text>
            <text x="18.0" y="376.0">Medium</text>
            <text x="18.0" y="576.0">Large</text>
        </g>
        <g font-size="9">
            <text x="250.0" y="30.0">Ultralight</text>
            <text x="450.0" y="30.0">Regular</text>
            <text x="650.0" y="30.0">Black</text>
            <text id="template-version" fill="#505050" text-anchor="end" x="785.0" y="575.0">Template v.3.0</text>
            <a href="https://github.com/swhitty/SwiftDraw">
                <text fill="#505050" text-anchor="end" x="785.0" y="590.0">https://github.com/swhitty/SwiftDraw</text>
            </a>
        </g>
    </g>
    <g id="Guides" stroke="rgb(39, 170, 225)" stroke-width="0.5">
        <path id="Capline-S" d="M18,76 l800,0" />
        <path id="H-reference" d="M85,145.755 L87.685,145.755 L113.369,79.287 L114.052,79.287 L114.052,76 L112.148,76 L85,145.755 Z M95.693,121.536 L130.996,121.536 L130.263,119.313 L96.474,119.313 L95.693,121.536 Z M139.15,145.755 L141.787,145.755 L114.638,76 L113.466,76 L113.466,79.287 L139.15,145.755 Z" stroke="none" transform="translate(0,0)" />
        <path id="Baseline-S" d="M18,146 l800,0" />
        <path id="left-margin-Ultralight-S" d="M228.937,56 l0,110" />
        <path id="right-margin-Ultralight-S" d="M301.063,56 l0,110" />
        <path id="left-margin-Regular-S" d="M428.937,56 l0,110" />
        <path id="right-margin-Regular-S" d="M501.063,56 l0,110" />
        <path id="left-margin-Black-S" d="M628.937,56 l0,110" />
        <path id="right-margin-Black-S" d="M701.063,56 l0,110" />
        <path id="Capline-M" d="M18,276 l800,0" />
        <path id="Baseline-M" d="M18,346 l800,0" />
        <path id="Capline-L" d="M18,476 l800,0" />
        <path id="Baseline-L" d="M18,546 l800,0" />
    </g>
    <g id="Symbols">
        <g id="Ultralight-S" transform="translate(0,0)">
            <g transform="translate(230.574 76) scale(0.082063)">
                <path d="M616.047 356.654C616.047 336.647 605.373 318.16 588.047 308.157L530.697 275.045C518.789 268.17 511.247 255.661 510.725 241.921C510.204 228.181 516.777 215.136 528.13 207.378L625.461 140.871C643.239 128.723 666.407 127.844 685.055 138.61L779.382 193.07C799.184 204.503 811.382 225.631 811.382 248.496V603.95C811.382 626.815 799.184 647.943 779.382 659.376L504.711 817.957C487.385 827.961 466.038 827.961 448.711 817.957C431.385 807.954 420.711 789.467 420.711 769.46V673.964C420.711 657.244 429.412 641.728 443.678 633.008L589.253 544.027C605.896 533.853 616.047 515.752 616.047 496.246V356.654Z" stroke="black" stroke-width="55" fill="none"/>
                <path d="M222.615 495.666C222.615 515.673 233.288 534.16 250.615 544.163L307.551 577.034C319.432 583.894 326.968 596.364 327.518 610.072C328.069 623.78 321.555 636.813 310.262 644.603L213.485 711.357C195.687 723.633 172.412 724.567 153.688 713.757L59.5 659.377C39.698 647.944 27.5 626.816 27.5 603.951V248.497C27.5 225.632 39.698 204.503 59.5 193.07L333.282 35.0025C350.613 24.9965 371.966 24.9995 389.294 35.0095C406.623 45.0205 417.292 63.5165 417.282 83.5285L417.233 179.053C417.224 195.761 408.527 211.263 394.272 219.98L249.403 308.556C232.763 318.731 222.615 336.829 222.615 356.333V495.666Z" stroke="black" stroke-width="55" fill="none"/>
                <path d="M402.997 298.382C412.897 292.666 425.096 292.666 434.997 298.382C457.697 311.487 499.011 335.34 521.711 348.447C531.612 354.163 537.711 364.727 537.711 376.159V476.288C537.711 487.72 531.612 498.284 521.711 504.001C499.011 517.107 457.697 540.959 434.997 554.065C425.096 559.781 412.897 559.781 402.997 554.065C380.296 540.959 338.983 517.107 316.282 504.001C306.382 498.284 300.282 487.72 300.282 476.288V376.159C300.282 364.727 306.382 354.163 316.282 348.447C338.983 335.34 380.296 311.487 402.997 298.382Z" stroke="black" stroke-width="55" fill="none"/>
            </g>
        </g>
        <g id="Regular-S" transform="translate(0,0)">
            <g transform="translate(430.574 76) scale(0.082063)">
                <path d="M616.047 356.654C616.047 336.647 605.373 318.16 588.047 308.157L530.697 275.045C518.789 268.17 511.247 255.661 510.725 241.921C510.204 228.181 516.777 215.136 528.13 207.378L625.461 140.871C643.239 128.723 666.407 127.844 685.055 138.61L779.382 193.07C799.184 204.503 811.382 225.631 811.382 248.496V603.95C811.382 626.815 799.184 647.943 779.382 659.376L504.711 817.957C487.385 827.961 466.038 827.961 448.711 817.957C431.385 807.954 420.711 789.467 420.711 769.46V673.964C420.711 657.244 429.412 641.728 443.678 633.008L589.253 544.027C605.896 533.853 616.047 515.752 616.047 496.246V356.654Z" stroke="black" stroke-width="55" fill="none"/>
                <path d="M222.615 495.666C222.615 515.673 233.288 534.16 250.615 544.163L307.551 577.034C319.432 583.894 326.968 596.364 327.518 610.072C328.069 623.78 321.555 636.813 310.262 644.603L213.485 711.357C195.687 723.633 172.412 724.567 153.688 713.757L59.5 659.377C39.698 647.944 27.5 626.816 27.5 603.951V248.497C27.5 225.632 39.698 204.503 59.5 193.07L333.282 35.0025C350.613 24.9965 371.966 24.9995 389.294 35.0095C406.623 45.0205 417.292 63.5165 417.282 83.5285L417.233 179.053C417.224 195.761 408.527 211.263 394.272 219.98L249.403 308.556C232.763 318.731 222.615 336.829 222.615 356.333V495.666Z" stroke="black" stroke-width="55" fill="none"/>
                <path d="M402.997 298.382C412.897 292.666 425.096 292.666 434.997 298.382C457.697 311.487 499.011 335.34 521.711 348.447C531.612 354.163 537.711 364.727 537.711 376.159V476.288C537.711 487.72 531.612 498.284 521.711 504.001C499.011 517.107 457.697 540.959 434.997 554.065C425.096 559.781 412.897 559.781 402.997 554.065C380.296 540.959 338.983 517.107 316.282 504.001C306.382 498.284 300.282 487.72 300.282 476.288V376.159C300.282 364.727 306.382 354.163 316.282 348.447C338.983 335.34 380.296 311.487 402.997 298.382Z" stroke="black" stroke-width="55" fill="none"/>
            </g>
        </g>
        <g id="Black-S" transform="translate(0,0)">
            <g transform="translate(630.574 76) scale(0.082063)">
                <path d="M616.047 356.654C616.047 336.647 605.373 318.16 588.047 308.157L530.697 275.045C518.789 268.17 511.247 255.661 510.725 241.921C510.204 228.181 516.777 215.136 528.13 207.378L625.461 140.871C643.239 128.723 666.407 127.844 685.055 138.61L779.382 193.07C799.184 204.503 811.382 225.631 811.382 248.496V603.95C811.382 626.815 799.184 647.943 779.382 659.376L504.711 817.957C487.385 827.961 466.038 827.961 448.711 817.957C431.385 807.954 420.711 789.467 420.711 769.46V673.964C420.711 657.244 429.412 641.728 443.678 633.008L589.253 544.027C605.896 533.853 616.047 515.752 616.047 496.246V356.654Z" stroke="black" stroke-width="55" fill="none"/>
                <path d="M222.615 495.666C222.615 515.673 233.288 534.16 250.615 544.163L307.551 577.034C319.432 583.894 326.968 596.364 327.518 610.072C328.069 623.78 321.555 636.813 310.262 644.603L213.485 711.357C195.687 723.633 172.412 724.567 153.688 713.757L59.5 659.377C39.698 647.944 27.5 626.816 27.5 603.951V248.497C27.5 225.632 39.698 204.503 59.5 193.07L333.282 35.0025C350.613 24.9965 371.966 24.9995 389.294 35.0095C406.623 45.0205 417.292 63.5165 417.282 83.5285L417.233 179.053C417.224 195.761 408.527 211.263 394.272 219.98L249.403 308.556C232.763 318.731 222.615 336.829 222.615 356.333V495.666Z" stroke="black" stroke-width="55" fill="none"/>
                <path d="M402.997 298.382C412.897 292.666 425.096 292.666 434.997 298.382C457.697 311.487 499.011 335.34 521.711 348.447C531.612 354.163 537.711 364.727 537.711 376.159V476.288C537.711 487.72 531.612 498.284 521.711 504.001C499.011 517.107 457.697 540.959 434.997 554.065C425.096 559.781 412.897 559.781 402.997 554.065C380.296 540.959 338.983 517.107 316.282 504.001C306.382 498.284 300.282 487.72 300.282 476.288V376.159C300.282 364.727 306.382 354.163 316.282 348.447C338.983 335.34 380.296 311.487 402.997 298.382Z" stroke="black" stroke-width="55" fill="none"/>
            </g>
        </g>
    </g>
</svg>
